<?xml version="1.0" standalone="no"?>
<!DOCTYPE svg PUBLIC "-//W3C//DTD SVG 20010904//EN"
 "http://www.w3.org/TR/2001/REC-SVG-20010904/DTD/svg10.dtd">
<svg version="1.0" xmlns="http://www.w3.org/2000/svg"
 width="410.000000pt" height="410.000000pt" viewBox="0 0 410.000000 410.000000"
 preserveAspectRatio="xMidYMid meet">
<metadata>
Created by potrace 1.11, written by Peter Selinger 2001-2013
</metadata>
<g transform="translate(0.000000,410.000000) scale(0.100000,-0.100000)"
fill="#000000" stroke="none">
<path d="M1696 4014 c-169 -41 -312 -168 -378 -336 -31 -78 -31 -259 0 -343
94 -252 360 -396 629 -340 201 43 377 221 409 415 37 228 -66 441 -267 552
-110 61 -271 82 -393 52z"/>
<path d="M2590 3865 c-135 -43 -208 -201 -151 -330 86 -199 370 -203 468 -6
25 50 24 153 -1 204 -56 114 -194 171 -316 132z"/>
<path d="M1043 3660 c-34 -21 -63 -66 -63 -100 0 -34 27 -87 53 -105 60 -39
146 -24 183 33 22 33 22 104 0 137 -34 53 -117 69 -173 35z"/>
<path d="M3112 3446 c-83 -28 -128 -127 -91 -199 74 -143 287 -101 291 57 2
101 -102 175 -200 142z"/>
<path d="M913 3349 c-114 -21 -220 -117 -254 -231 -16 -54 -12 -141 10 -197
50 -133 169 -212 317 -212 216 1 370 203 314 411 -42 157 -216 260 -387 229z"/>
<path d="M2628 3305 c-2 -2 -23 -6 -47 -9 -54 -7 -154 -53 -199 -92 -186 -157
-191 -446 -11 -608 215 -193 552 -129 673 128 25 52 45 145 40 182 -13 89 -19
114 -40 160 -48 105 -182 209 -294 229 -40 8 -118 13 -122 10z"/>
<path d="M3313 3022 c-34 -11 -73 -49 -89 -89 -30 -70 9 -159 83 -189 104 -44
215 36 209 150 -5 94 -105 157 -203 128z"/>
<path d="M1550 2914 c-309 -66 -518 -378 -455 -680 57 -269 276 -456 553 -472
51 -2 94 -8 97 -12 7 -11 58 -278 69 -360 28 -208 26 -476 -5 -655 -6 -33 -12
-69 -14 -80 -18 -105 -92 -330 -141 -427 -13 -26 -24 -58 -24 -71 0 -53 82
-81 119 -41 10 10 34 57 55 104 l37 85 277 -1 c152 -1 281 -2 285 -3 5 0 6 -9
3 -19 -2 -9 -7 -47 -11 -84 -5 -60 -4 -68 16 -87 45 -41 118 -15 124 44 2 17
5 50 8 75 3 25 9 79 12 120 3 41 8 102 10 135 6 76 7 412 1 485 -26 326 -85
568 -194 789 -45 92 -62 116 -86 126 -32 14 -73 5 -88 -18 -12 -19 -9 -56 7
-87 l16 -30 -98 -1 c-54 0 -128 -2 -165 -5 -38 -2 -68 0 -68 5 0 5 -2 16 -5
24 -4 10 9 20 44 35 168 70 303 230 345 411 15 66 14 214 -2 266 -46 144 -103
230 -212 316 -141 112 -325 153 -510 113z m755 -1349 c12 -33 25 -72 29 -87
l6 -28 -195 0 c-123 0 -195 4 -195 10 0 6 0 11 -1 13 -9 31 -26 133 -23 136 2
2 59 6 126 8 68 3 124 5 125 6 1 1 25 2 54 2 l52 0 22 -60z m80 -291 c3 -25 8
-54 10 -64 2 -10 6 -38 10 -63 l7 -44 -216 0 c-119 0 -216 1 -216 1 -1 1 -3
49 -7 109 l-5 107 205 0 205 0 7 -46z m21 -303 c19 -1 20 -8 23 -106 l2 -105
-236 0 -236 0 7 88 c4 48 8 94 10 102 1 8 3 17 3 20 1 4 345 5 427 1z m20
-423 c-3 -46 -5 -90 -5 -100 -1 -15 -26 -16 -266 -16 -146 0 -265 3 -265 6 0
4 10 49 22 100 l23 92 248 0 248 0 -5 -82z"/>
<path d="M713 2663 c-54 -19 -116 -88 -133 -148 -27 -96 17 -199 107 -252 85
-50 215 -32 279 39 68 74 82 168 39 254 -55 106 -173 150 -292 107z"/>
<path d="M3075 2611 c-43 -19 -91 -68 -107 -110 -56 -146 90 -302 243 -261
115 31 179 146 142 255 -38 110 -171 165 -278 116z"/>
<path d="M2620 2380 c-163 -29 -284 -189 -266 -350 13 -114 101 -228 209 -269
79 -30 194 -25 269 12 70 34 140 110 167 180 23 61 23 172 -1 227 -64 148
-218 229 -378 200z"/>
<path d="M3190 2139 c-69 -31 -111 -102 -103 -172 14 -127 141 -194 260 -136
63 30 97 92 91 164 -10 123 -134 195 -248 144z"/>
<path d="M874 2110 c-105 -46 -152 -181 -100 -285 98 -196 408 -124 408 95 0
154 -163 255 -308 190z"/>
<path d="M1284 1691 c-49 -22 -70 -46 -87 -96 -59 -176 187 -292 293 -138 41
60 30 157 -25 206 -47 42 -123 54 -181 28z"/>
<path d="M2709 1643 c-101 -43 -140 -150 -87 -245 42 -76 154 -111 231 -72
103 52 132 179 61 264 -51 59 -137 82 -205 53z"/>
</g>
</svg>
